<svg xmlns="http://www.w3.org/2000/svg" width="22" height="22" viewBox="0 0 32.665 32.665">
  <g id="currentPos" transform="translate(-1837.668 -113.668)">
    <circle id="circle1" data-name="circle1" cx="10" cy="10" r="10" transform="translate(1844 120)" fill="none" stroke="#FAFAFA" stroke-width="3"/>
    <g id="circle2" data-name="circle2" transform="translate(1848.5 124.5)" fill="#FAFAFA" stroke="#FAFAFA" stroke-width="1">
      <circle cx="5.5" cy="5.5" r="5.5" stroke="none"/>
      <circle cx="5.5" cy="5.5" r="5" fill="none"/>
    </g>
    <g id="path1" data-name="path1" transform="translate(1837.668 128.486)" fill="#FAFAFA">
      <path d="M 6.164555549621582 2.527818441390991 L 0.4999953806400299 2.527818441390991 L 0.4999953806400299 0.4999983906745911 L 6.164555549621582 0.4999983906745911 L 6.164555549621582 2.527818441390991 Z" stroke="none"/>
      <path d="M 0.999995231628418 0.9999983310699463 L 0.999995231628418 2.027818441390991 L 5.664555549621582 2.027818441390991 L 5.664555549621582 0.9999983310699463 L 0.999995231628418 0.9999983310699463 M -4.76837158203125e-06 -1.668930053710938e-06 L 6.664555549621582 -1.668930053710938e-06 L 6.664555549621582 3.027818441390991 L -4.76837158203125e-06 3.027818441390991 L -4.76837158203125e-06 -1.668930053710938e-06 Z" stroke="none" fill="#FAFAFA"/>
    </g>
    <g id="path2" data-name="path2" transform="translate(1863.668 128.486)" fill="#FAFAFA">
      <path d="M 6.164555549621582 2.527818441390991 L 0.4999953806400299 2.527818441390991 L 0.4999953806400299 0.4999983906745911 L 6.164555549621582 0.4999983906745911 L 6.164555549621582 2.527818441390991 Z" stroke="none"/>
      <path d="M 0.999995231628418 0.9999983310699463 L 0.999995231628418 2.027818441390991 L 5.664555549621582 2.027818441390991 L 5.664555549621582 0.9999983310699463 L 0.999995231628418 0.9999983310699463 M -4.76837158203125e-06 -1.668930053710938e-06 L 6.664555549621582 -1.668930053710938e-06 L 6.664555549621582 3.027818441390991 L -4.76837158203125e-06 3.027818441390991 L -4.76837158203125e-06 -1.668930053710938e-06 Z" stroke="none" fill="#FAFAFA"/>
    </g>
    <g id="path3" data-name="path3" transform="translate(1855.514 139.668) rotate(90)" fill="#FAFAFA">
      <path d="M 6.164555549621582 2.527818441390991 L 0.4999953806400299 2.527818441390991 L 0.4999953806400299 0.4999983906745911 L 6.164555549621582 0.4999983906745911 L 6.164555549621582 2.527818441390991 Z" stroke="none"/>
      <path d="M 0.999995231628418 0.9999983310699463 L 0.999995231628418 2.027818441390991 L 5.664555549621582 2.027818441390991 L 5.664555549621582 0.9999983310699463 L 0.999995231628418 0.9999983310699463 M -4.76837158203125e-06 -1.668930053710938e-06 L 6.664555549621582 -1.668930053710938e-06 L 6.664555549621582 3.027818441390991 L -4.76837158203125e-06 3.027818441390991 L -4.76837158203125e-06 -1.668930053710938e-06 Z" stroke="none" fill="#FAFAFA"/>
    </g>
    <g id="path4" data-name="path4" transform="translate(1855.514 113.668) rotate(90)" fill="#FAFAFA">
      <path d="M 6.164555549621582 2.527818441390991 L 0.4999953806400299 2.527818441390991 L 0.4999953806400299 0.4999983906745911 L 6.164555549621582 0.4999983906745911 L 6.164555549621582 2.527818441390991 Z" stroke="none"/>
      <path d="M 0.999995231628418 0.9999983310699463 L 0.999995231628418 2.027818441390991 L 5.664555549621582 2.027818441390991 L 5.664555549621582 0.9999983310699463 L 0.999995231628418 0.9999983310699463 M -4.76837158203125e-06 -1.668930053710938e-06 L 6.664555549621582 -1.668930053710938e-06 L 6.664555549621582 3.027818441390991 L -4.76837158203125e-06 3.027818441390991 L -4.76837158203125e-06 -1.668930053710938e-06 Z" stroke="none" fill="#FAFAFA"/>
    </g>
  </g>
</svg>
