<svg xmlns="http://www.w3.org/2000/svg" width="20" height="25" viewBox="0 0 30 35">
  <g id="roadView" transform="translate(-1839 -261)">
    <g id="circle1" data-name="circle1" transform="translate(1839 286)" fill="none" stroke="#707070" stroke-width="2">
      <ellipse cx="15" cy="5" rx="15" ry="5" stroke="none"/>
      <ellipse cx="15" cy="5" rx="14" ry="4" fill="none"/>
    </g>
    <g id="merge" data-name="merge" transform="translate(1847 270)" fill="#767676">
      <path d="M 8.888400077819824 21.0004997253418 L 5.111100196838379 21.0004997253418 C 4.559810161590576 21.0004997253418 4.111299991607666 20.5519905090332 4.111299991607666 20.00069999694824 L 4.111299991607666 13.3794002532959 C 4.111299991607666 13.29724025726318 4.121140003204346 13.21585941314697 4.140550136566162 13.13751983642578 L 4.44795036315918 11.89700031280518 L 3.169910192489624 11.89700031280518 L 1.999800086021423 11.89700031280518 C 1.44851016998291 11.89700031280518 1.00000011920929 11.44808959960938 1.00000011920929 10.89630031585693 L 1.00000011920929 5.999399662017822 C 1.00000011920929 3.242719888687134 3.243130207061768 0.9999998807907104 6.00029993057251 0.9999998807907104 L 7.999200344085693 0.9999998807907104 C 10.75637054443359 0.9999998807907104 12.9995002746582 3.242719888687134 12.9995002746582 5.999399662017822 L 12.9995002746582 10.89630031585693 C 12.9995002746582 11.44808959960938 12.55099010467529 11.89700031280518 11.99970054626465 11.89700031280518 L 10.82962989807129 11.89700031280518 L 9.551830291748047 11.89700031280518 L 9.858940124511719 13.13735008239746 C 9.878359794616699 13.21574974060059 9.888199806213379 13.29718971252441 9.888199806213379 13.3794002532959 L 9.888199806213379 20.00069999694824 C 9.888199806213379 20.5519905090332 9.439690589904785 21.0004997253418 8.888400077819824 21.0004997253418 Z" stroke="none"/>
      <path d="M 8.888199806213379 20.0004997253418 L 8.888199806213379 20.00069999694824 L 8.888259887695312 13.37769031524658 L 8.274020195007324 10.89700031280518 L 11.9995002746582 10.89630031585693 L 11.9995002746582 5.999399662017822 C 11.9995002746582 3.794119834899902 10.20497035980225 1.99999988079071 7.999200344085693 1.99999988079071 L 6.00029993057251 1.99999988079071 C 3.794530153274536 1.99999988079071 2.000000238418579 3.794119834899902 2.000000238418579 5.999399662017822 L 1.999800086021423 10.89700031280518 L 5.726099967956543 10.89834976196289 L 5.111299991607666 13.3794002532959 L 5.111100196838379 20.0004997253418 L 8.888199806213379 20.0004997253418 M 8.888400077819824 22.0004997253418 L 5.111100196838379 22.0004997253418 C 4.006800174713135 22.0004997253418 3.111300230026245 21.10499954223633 3.111300230026245 20.00069999694824 L 3.111300230026245 13.3794002532959 C 3.111300230026245 13.21304988861084 3.131620168685913 13.0515193939209 3.169910192489624 12.89700031280518 L 1.999800086021423 12.89700031280518 C 0.895500123500824 12.89700031280518 1.373290956507844e-07 12.00150012969971 1.373290956507844e-07 10.89630031585693 L 1.373290956507844e-07 5.999399662017822 C 1.373290956507844e-07 2.685599803924561 2.686500072479248 -1.373290956507844e-07 6.00029993057251 -1.373290956507844e-07 L 7.999200344085693 -1.373290956507844e-07 C 11.3129997253418 -1.373290956507844e-07 13.9995002746582 2.685599803924561 13.9995002746582 5.999399662017822 L 13.9995002746582 10.89630031585693 C 13.9995002746582 12.00150012969971 13.10400009155273 12.89700031280518 11.99970054626465 12.89700031280518 L 10.82962989807129 12.89700031280518 C 10.86789035797119 13.0515193939209 10.88819980621338 13.21304988861084 10.88819980621338 13.3794002532959 L 10.88819980621338 20.00069999694824 C 10.88819980621338 21.10499954223633 9.993599891662598 22.0004997253418 8.888400077819824 22.0004997253418 Z" stroke="none" fill="#767676"/>
    </g>
    <g id="circle2" data-name="circle2" transform="translate(1850 261)" fill="#767676" stroke="#767676" stroke-width="2">
      <circle cx="4" cy="4" r="4" stroke="none"/>
      <circle cx="4" cy="4" r="3" fill="none"/>
    </g>
  </g>
</svg>
