<svg width="21" height="19" viewBox="0 0 21 19" fill="none" xmlns="http://www.w3.org/2000/svg">
<path d="M10.8674 1.37006L12.8235 5.91225C13.0551 6.45014 13.5621 6.81849 14.1452 6.87257L19.0696 7.32929C19.4191 7.36171 19.5603 7.79643 19.2966 8.02809L15.5812 11.292C15.1412 11.6786 14.9476 12.2746 15.0763 12.8459L16.1637 17.6703C16.2408 18.0128 15.871 18.2814 15.5692 18.1022L11.3169 15.5773C10.8133 15.2783 10.1867 15.2783 9.6831 15.5773L5.43077 18.1022C5.12896 18.2814 4.75916 18.0128 4.83634 17.6703L5.92368 12.8459C6.05244 12.2746 5.85878 11.6786 5.41881 11.292L1.70338 8.02809C1.43968 7.79643 1.58093 7.36171 1.93044 7.32929L6.85478 6.87257C7.43792 6.81849 7.94491 6.45014 8.17655 5.91225L10.1326 1.37006C10.2715 1.04767 10.7285 1.04767 10.8674 1.37006Z" stroke="#767676" stroke-width="1.2"/>
</svg>
